<svg width="297" height="297" viewBox="0 0 297 297" fill="none" xmlns="http://www.w3.org/2000/svg">
<path d="M99.8082 137.601C98.3406 137.601 96.873 137.041 95.7535 135.921L71.2904 111.459C70.2138 110.383 69.6094 108.924 69.6094 107.403C69.6094 105.882 70.2138 104.422 71.2893 103.347L95.7523 78.884C97.9949 76.6437 101.624 76.6437 103.865 78.884C106.104 81.1242 106.104 84.7567 103.865 86.9958L83.457 107.403L103.863 127.809C106.103 130.049 106.103 133.68 103.864 135.921C102.745 137.041 101.277 137.601 99.8082 137.601Z" fill="#122E4F"/>
<path d="M158.907 137.601C157.439 137.601 155.971 137.041 154.85 135.921C152.61 133.68 152.61 130.049 154.851 127.809L175.257 107.403L154.848 86.9958C152.609 84.7555 152.609 81.1231 154.848 78.884C157.091 76.6437 160.72 76.6437 162.961 78.884L187.424 103.347C188.5 104.422 189.104 105.882 189.104 107.403C189.104 108.924 188.5 110.383 187.423 111.459L162.96 135.921C161.842 137.041 160.374 137.601 158.907 137.601Z" fill="#122E4F"/>
<path d="M116.925 137.603C116.05 137.603 115.165 137.402 114.331 136.98C111.507 135.545 110.381 132.092 111.816 129.268L136.672 80.3435C138.108 77.5196 141.561 76.3931 144.385 77.8271C147.209 79.2622 148.335 82.7148 146.901 85.5386L122.045 134.464C121.032 136.454 119.016 137.603 116.925 137.603Z" fill="#122E4F"/>
<path d="M36.9313 154.191H221.782V164.618H36.9313V154.191Z" fill="#D9EBFF"/>
<path d="M202.701 227.487H56.0135C53.2164 227.487 50.9495 225.22 50.9495 222.423C50.9495 219.626 53.2164 217.359 56.0135 217.359H202.701C205.499 217.359 207.765 219.626 207.765 222.423C207.765 225.22 205.499 227.487 202.701 227.487Z" fill="#D9EBFF"/>
<path d="M21.4629 171.578C23.0651 171.578 24.3633 170.28 24.3633 168.678V45.7012C24.3633 44.1013 25.665 42.8008 27.2637 42.8008H231.451C233.051 42.8008 234.352 44.1013 234.352 45.7012V168.678C234.352 170.28 235.65 171.578 237.252 171.578C238.854 171.578 240.152 170.28 240.152 168.678V45.7012C240.152 40.9028 236.25 37 231.451 37H27.2637C22.4653 37 18.5625 40.9028 18.5625 45.7012V168.678C18.5625 170.28 19.8607 171.578 21.4629 171.578Z" fill="#122E4F"/>
<path d="M36.9313 51.502C35.3291 51.502 34.0309 52.8002 34.0309 54.4023V164.617C34.0309 166.219 35.3291 167.518 36.9313 167.518H221.784C223.386 167.518 224.684 166.219 224.684 164.617V54.4023C224.684 52.8002 223.386 51.502 221.784 51.502H36.9313ZM218.883 161.717H39.8317V57.3027H218.883V161.717Z" fill="#122E4F"/>
<path d="M246.339 176.219H12.3754C5.55251 176.219 0 181.77 0 188.594C0 195.418 5.55135 200.97 12.3754 200.97H246.339C253.163 200.97 258.715 195.418 258.715 188.594C258.715 181.77 253.163 176.219 246.339 176.219ZM246.339 195.169H12.3754C8.7499 195.169 5.80078 192.22 5.80078 188.594C5.80078 184.969 8.7499 182.02 12.3754 182.02H246.339C249.965 182.02 252.914 184.969 252.914 188.594C252.914 192.22 249.965 195.169 246.339 195.169Z" fill="#122E4F"/>
</svg>
