<svg width="220" height="220" viewBox="0 0 220 220" fill="none" xmlns="http://www.w3.org/2000/svg">
<path d="M75.625 171.875H144.375V213.125H75.625V171.875Z" fill="#D7E1F2"/>
<path d="M220 158.125H0V41.25C0 33.6533 6.15326 27.5 13.75 27.5H206.25C213.847 27.5 220 33.6533 220 41.25V158.125Z" fill="#122E4F"/>
<path d="M220 82.5H151.25V13.75C151.25 6.15326 157.403 0 165 0H206.25C213.847 0 220 6.15326 220 13.75V82.5Z" fill="#D9EBFF"/>
<path d="M151.25 75.625V96.25C151.25 103.847 157.403 110 165 110H206.25C213.847 110 220 103.847 220 96.25V75.625H151.25Z" fill="white"/>
<path d="M133.472 89.375H68.75C64.955 89.375 61.875 86.295 61.875 82.5C61.875 78.705 64.955 75.625 68.75 75.625H100.278L91.3892 66.7358L101.111 57.0142L133.472 89.375Z" fill="white"/>
<path d="M63.8892 135.486L31.5283 103.125H96.25C100.045 103.125 103.125 106.205 103.125 110C103.125 113.795 100.045 116.875 96.25 116.875H64.7217L73.6108 125.764L63.8892 135.486Z" fill="white"/>
<path d="M34.375 75.625H48.125V89.375H34.375V75.625Z" fill="white"/>
<path d="M116.875 103.125H130.625V116.875H116.875V103.125Z" fill="white"/>
<path d="M158.125 220H61.875C58.08 220 55 216.92 55 213.125C55 209.33 58.08 206.25 61.875 206.25H158.125C161.92 206.25 165 209.33 165 213.125C165 216.92 161.92 220 158.125 220Z" fill="#E4EDFB"/>
<path d="M206.25 185.625H13.75C6.15326 185.625 0 179.472 0 171.875V151.25H220V171.875C220 179.472 213.847 185.625 206.25 185.625Z" fill="#E4EDFB"/>
</svg>
