<svg width="531" height="442" viewBox="0 0 531 442" fill="none" xmlns="http://www.w3.org/2000/svg">
<path d="M0.418152 341C24.9043 239.06 153.785 34.3449 473.418 31C378.858 44.1407 151.874 124.538 0.418152 341Z" fill="#D6E6FF"/>
<path d="M2.73681e-06 337.079C46.4711 242.988 217.614 71.6796 530.418 139.176C435.189 131.07 195.784 159.301 2.73681e-06 337.079Z" fill="#D6E6FF"/>
<path d="M337.877 197.299C337.877 225.046 332.834 249.29 322.747 270.032C312.661 290.636 300.721 305.252 282.957 317.752L374.418 326.712V364.395L268.552 353.957L262.358 442L214.358 344C207.734 344.824 201.11 345.236 194.486 345.236C166.485 345.236 141.646 339.33 119.968 327.517C98.2903 315.704 81.3544 298.808 69.1605 276.831C57.1172 254.853 50.8697 229.579 50.4181 201.008V185.143C50.4181 155.611 56.2892 129.649 68.0315 107.26C79.9242 84.87 96.7848 67.5626 118.613 55.3376C140.592 43.1125 165.733 37 194.035 37C221.885 37 246.724 43.0438 268.552 55.1315C290.381 67.2192 307.317 84.4579 319.36 106.848C331.554 129.1 337.726 154.649 337.877 183.495V197.299ZM257.262 184.731C257.262 154.924 251.767 132.328 240.778 116.944C229.939 101.422 214.358 93.6611 194.035 93.6611C173.109 93.6611 157.378 101.285 146.84 116.532C136.302 131.779 130.958 154.1 130.807 183.495V197.299C130.807 226.832 136.151 249.496 146.84 265.293C157.528 280.952 173.41 288.781 194.486 288.781C214.659 288.781 230.089 281.02 240.778 265.499C251.617 249.977 257.111 227.656 257.262 198.536V184.731Z" fill="#527FC1"/>
<path d="M337.877 160.458C337.877 188.233 332.834 212.501 322.747 233.263C312.661 253.887 298.736 270.456 280.972 282.968L374.418 327.72L268.552 317.271L264.425 406L214.358 307.305C207.734 308.13 201.11 308.542 194.486 308.542C166.485 308.542 141.646 302.63 119.968 290.805C98.2903 278.98 81.3544 262.068 69.1605 240.069C57.1172 218.069 50.8697 192.77 50.4181 164.171V148.29C50.4181 118.728 56.2892 92.7414 68.0315 70.3295C79.9242 47.9175 96.7848 30.593 118.613 18.3558C140.592 6.1186 165.733 0 194.035 0C221.885 0 246.724 6.04985 268.552 18.1495C290.381 30.2492 307.317 47.5051 319.36 69.917C331.554 92.1914 337.726 117.766 337.877 146.64V160.458ZM257.262 147.878C257.262 118.041 251.767 95.4226 240.778 80.023C229.939 64.4859 214.358 56.7173 194.035 56.7173C173.109 56.7173 157.378 64.3484 146.84 79.6105C136.302 94.8726 130.958 117.216 130.807 146.64V160.458C130.807 190.02 136.151 212.707 146.84 228.519C157.528 244.194 173.41 252.031 194.486 252.031C214.659 252.031 230.089 244.263 240.778 228.725C251.617 213.188 257.111 190.845 257.262 161.696V147.878Z" fill="#85ADE8"/>
</svg>
