<svg width="82" height="80" viewBox="0 0 82 80" fill="none" xmlns="http://www.w3.org/2000/svg">
<path d="M60.44 59.9685C65.531 55.4746 68.8675 49.324 69.8587 42.606C70.8498 35.888 69.4317 29.036 65.8555 23.2633C62.2792 17.4906 56.7755 13.1697 50.319 11.0656C43.8625 8.96152 36.8697 9.2101 30.5788 11.7673C24.288 14.3245 19.1051 19.0254 15.9477 25.0374C12.7904 31.0495 11.8624 37.9849 13.3281 44.6156C14.7938 51.2463 18.5586 57.1443 23.9558 61.2655C29.3531 65.3866 36.0345 67.4648 42.8171 67.1322L41.4084 38.4085L60.44 59.9685Z" fill="#527FC1"/>
<path d="M61.0102 50.8294L61.0114 50.8271C62.618 47.5112 63.4045 43.6689 63.4045 39.3276L63.4045 37.2277L63.4044 37.2225C63.3809 32.6937 62.4143 28.6416 60.4777 25.0931C58.5639 21.5237 55.862 18.7614 52.3834 16.8281C48.9099 14.8976 44.9746 13.9442 40.6036 13.9442C36.1651 13.9442 32.1832 14.9077 28.6853 16.8604L28.6827 16.8618C25.2043 18.8169 22.5134 21.5911 20.6226 25.1637L20.6226 25.1637L20.6202 25.1684C18.7541 28.7394 17.837 32.8522 17.837 37.4785V39.8918V39.8996L17.8371 39.9075C17.9077 44.3925 18.8865 48.4002 20.7999 51.9045L20.8024 51.9091C22.7404 55.4147 25.4427 58.1228 28.8982 60.0126C32.3495 61.9002 36.2832 62.8306 40.6721 62.8306C41.4487 62.8306 42.2252 62.7946 43.0014 62.7226L48.249 77.7716L48.5677 78.6855L49.4915 78.3968L56.6342 76.1648L57.6375 75.8512L57.2743 74.8647L53.8689 65.6164L63.8298 72.0332L64.7085 72.5992L65.2352 71.6964L68.3601 66.3394L68.867 65.4704L67.995 64.9688L55.5795 57.8259C57.8393 55.9561 59.6494 53.6194 61.0102 50.8294ZM46.8672 27.6757L46.8671 27.6757L46.8733 27.6844C48.3668 29.7828 49.1864 32.9783 49.1864 37.4158V39.5131C49.1638 43.8407 48.347 47.0035 46.8672 49.1304L46.8635 49.1358C45.4445 51.2039 43.4262 52.2431 40.6721 52.2431C37.7674 52.2431 35.69 51.1834 34.2788 49.1096C32.8167 46.9398 32.0208 43.7212 32.0208 39.3276V37.2304C32.0434 32.8527 32.8404 29.6913 34.2743 27.609C35.659 25.5983 37.7128 24.563 40.6036 24.563C43.3838 24.563 45.4264 25.605 46.8672 27.6757Z" fill="url(#paint0_linear)" stroke="white" stroke-width="2"/>
<defs>
<linearGradient id="paint0_linear" x1="43.1666" y1="14.9442" x2="43.1666" y2="77.4424" gradientUnits="userSpaceOnUse">
<stop offset="0.505008" stop-color="#9CC2FB"/>
<stop offset="0.505108" stop-color="#527FC1"/>
<stop offset="0.541667" stop-color="#527FC1"/>
</linearGradient>
</defs>
</svg>
